<svg xmlns="http://www.w3.org/2000/svg" version="1.1" xmlns:xlink="http://www.w3.org/1999/xlink" xmlns:svgjs="http://svgjs.dev/svgjs" width="100%" height="100%" viewBox="0 0 1000 600"><rect width="1000" height="600" x="0" y="0" fill="#FFf424d"/><g><circle r="166.66666666666666" cx="329.0039927164713" cy="351.22616467741346" fill="#8aa242" transform="matrix(0.7700019112191813,0,0,0.7700019112191813,0,29.55518513249514)"/><path d="M293.44553208566685 341.233762036842L293.44553208566685 341.233762036842Q283.15283573251315 341.233762036842 274.7240079342566 346.7632387497032Q266.295180136 352.2720058119544 261.22131573655804 360.9286397669207L261.22131573655804 360.9286397669207Q271.5140120897117 359.1269001638535 282.46941726238424 359.1269001638535Q293.44553208566685 359.1269001638535 302.6820362577122 361.0736073211905L302.6820362577122 361.0736073211905Q305.8091934998172 355.10922794551993 305.8091934998172 350.635943413767L305.8091934998172 350.635943413767Q305.8091934998172 341.233762036842 293.44553208566685 341.233762036842ZM222.45284979469966 387.768346957438Q222.45284979469966 392.2416314891909 227.29890803743194 394.9960150203166Q232.14496628016423 397.7503985514421 241.31934150037966 397.7503985514421Q250.4937167205951 397.7503985514421 260.18583320605967 394.6232413093371L260.18583320605967 394.6232413093371Q253.76584151696989 389.1144742470859 253.76584151696989 380.0022279787004Q253.76584151696989 370.91069136092483 257.6592558316437 363.1652820327971L257.6592558316437 363.1652820327971Q241.69211521135907 366.74805158832146 232.08283732833434 373.89288104876005Q222.45284979469966 381.05842015980863 222.45284979469966 387.768346957438L222.45284979469966 387.768346957438ZM280.17064604467794 398.8065907325505L280.17064604467794 398.8065907325505Q304.4630662101693 398.8065907325505 327.1401336280833 377.93126291770363L327.1401336280833 377.93126291770363Q320.4302068304539 368.8190166493181 306.1198382589667 364.2007645632955L306.1198382589667 364.2007645632955Q300.7353291003752 373.74791349449026 290.0077300844123 382.3217088470167Q279.28013106844935 390.8955041995431 265.4046651597714 395.3687887312959L265.4046651597714 395.3687887312959Q271.2240769811722 398.8065907325505 280.17064604467794 398.8065907325505ZM260.33080076032945 362.5647021651081L260.33080076032945 362.5647021651081Q256.1681609877261 370.62075625238526 256.1681609877261 379.567325315891Q256.1681609877261 388.5138943793968 262.87808778535543 393.8776938873783L262.87808778535543 393.8776938873783Q275.38671675377554 389.2594418013557 285.8243806611989 380.6028078463894Q296.26204456862234 371.9668835420331 301.6465537272138 362.85463727364765L301.6465537272138 362.85463727364765Q291.9544372417492 360.6179950077711 281.35109612944603 360.6179950077711Q270.7684646677529 360.6179950077711 260.33080076032945 362.5647021651081ZM410.93137999601015 290.7022145485223L410.93137999601015 290.7022145485223Q406.31312790998743 294.26427445343666 402.95816451117275 297.2464641412719Q399.60320111235814 300.22865382910715 394.38436915864645 306.648645518197Q389.1655372049347 313.06863720728677 386.41115367380905 316.6306971122011Q383.65677014268346 320.21346666772536 377.6095521645731 328.4973269117122Q371.5623341864627 336.76047750508906 369.03575681204666 340.1982795063436L369.03575681204666 340.1982795063436Q385.7277352036802 336.3255748422798 401.9226819806744 326.4056522001056Q418.09691910705874 316.48572955793134 427.4162618815439 306.2758718072175Q436.7356046560291 296.0660140565038 436.7356046560291 289.64602236741393L436.7356046560291 289.64602236741393Q436.7356046560291 284.13725530516274 428.07897070106293 284.13725530516274Q419.4430463967066 284.13725530516274 410.93137999601015 290.7022145485223ZM350.99765113076535 342.43492177222004L350.99765113076535 342.43492177222004Q355.4709356625183 342.43492177222004 357.8525454826645 342.1449866636806L357.8525454826645 342.1449866636806Q376.94684334505416 316.050826895122 385.7277352036802 306.648645518197L385.7277352036802 306.648645518197Q407.9491903081749 282.50119290697535 429.88071030413 282.50119290697535L429.88071030413 282.50119290697535Q438.8272793676358 282.50119290697535 438.8272793676358 289.2111197046047L438.8272793676358 289.2111197046047Q438.8272793676358 294.5749192125861 433.06999649806494 302.4031671431537Q427.33342327910407 310.2314150737212 418.01408050461885 318.1217919561187Q408.6947377301337 326.0328784891261 395.04707797816536 332.82564388919536Q381.420127876807 339.5976996386546 367.39969441385927 342.43492177222004L367.39969441385927 342.43492177222004Q349.0509439734285 367.0379866968609 333.39444811229333 379.8572604244306L333.39444811229333 379.8572604244306Q337.2671527763572 385.82163980010114 337.2671527763572 392.2416314891909L337.2671527763572 392.2416314891909Q337.2671527763572 403.71477792711266 325.1312975189165 413.17908825586755Q312.9747326108658 422.66410823523256 289.2621826624535 426.2261681401469L289.2621826624535 426.2261681401469L289.2621826624535 424.5901057419595Q309.99254292303056 421.31798094558474 321.030786698143 412.1436057253693Q332.04832082264545 402.96923050515386 332.04832082264545 391.7860191757717L332.04832082264545 391.7860191757717Q332.04832082264545 387.16776708974896 329.97735576164877 382.54951500372636L329.97735576164877 382.54951500372636Q305.8091934998172 400.73258823927745 278.67955120076033 400.73258823927745L278.67955120076033 400.73258823927745Q268.5318224018764 400.73258823927745 262.27750791766636 396.4042712617943L262.27750791766636 396.4042712617943Q251.09429658828412 399.3864609496295 240.80160023513048 399.3864609496295Q230.50890388197683 399.3864609496295 224.85516926545583 396.03149755081495Q219.18072499832485 392.6765341520003 219.18072499832485 387.45770219828853L219.18072499832485 387.45770219828853Q219.18072499832485 380.0022279787004 229.70122750818814 372.40178620484244Q240.20102036744146 364.8013444309845 258.5497708078723 361.36354242972993L258.5497708078723 361.36354242972993Q263.768602761584 351.67142594426537 273.3778806446087 345.41711146005537Q283.0078681782434 339.16279697584525 295.22656203812403 339.16279697584525L295.22656203812403 339.16279697584525Q302.8270038119819 339.16279697584525 306.554740921776 342.35208316978014Q310.28247803157007 345.56207901432515 310.28247803157007 350.92587852230656Q310.28247803157007 356.310387680898 307.155320789465 362.2747670565685L307.155320789465 362.2747670565685Q321.3207218066825 366.2924392749021 329.97735576164877 375.38397589267765L329.97735576164877 375.38397589267765Q340.8499223318815 364.6563768767147 356.3614506387468 343.92601661613764L356.3614506387468 343.92601661613764Q352.1781012155335 344.2159517246772 349.7964913953873 344.2159517246772L349.7964913953873 344.2159517246772Q332.64890069033453 344.2159517246772 323.7851702292686 336.3877037941097Q314.90073011759273 328.5594558635421 314.90073011759273 316.7963743170808L314.90073011759273 316.7963743170808Q314.90073011759273 301.42981356448524 328.85903462871056 288.83834599362524Q342.7966294892184 276.2261687721553 365.5979548107922 276.2261687721553L365.5979548107922 276.2261687721553Q370.6718192102341 276.2261687721553 375.0001361877172 276.82674863984437L375.0001361877172 276.82674863984437L374.2545887657584 278.918423351451Q368.5801444986274 278.1728759294922 364.56247228029383 278.1728759294922L364.56247228029383 278.1728759294922Q343.5421769111772 278.1728759294922 330.7850321354375 289.8738285241236Q318.04859701030773 301.574781118755 318.04859701030773 316.050826895122L318.04859701030773 316.050826895122Q318.04859701030773 327.37900577877394 326.45671515795436 334.8966089501921Q334.885542956211 342.43492177222004 350.99765113076535 342.43492177222004Z " fill="#24s45" transform="matrix(0.7700019112191813,0,0,0.7700019112191813,0,29.55518513249514)"/><path d="M732.910266195762 387.94492167444696Q740.7227667476568 385.9049909747855 744.6290170236043 382.8667963157153Q748.5352672995517 379.8286016566451 748.5352672995517 378.0273862516249Q748.5352672995517 376.22617084660465 747.2982880455017 376.22617084660465L747.2982880455017 376.22617084660465Q743.9996767013683 376.22617084660465 732.910266195762 387.94492167444696L732.910266195762 387.94492167444696ZM623.0795292703729 383.10551161035653L623.0795292703729 383.10551161035653Q629.9371686437028 382.47617128812055 638.3790095178337 382.56297684980825Q646.8208503919645 382.6280810210741 664.0083516061334 385.123740919596L664.0083516061334 385.123740919596Q668.0665116150343 377.78867095698365 668.0665116150343 372.1680108377037L668.0665116150343 372.1680108377037Q668.0665116150343 362.7930101754298 656.4996705201454 362.7930101754298L656.4996705201454 362.7930101754298Q646.9727601249181 362.7930101754298 638.0751900519267 368.50047585639743Q629.1559185885133 374.1862401469432 623.0795292703729 383.10551161035653ZM582.1290055441905 412.46749285122814L582.1290055441905 412.46749285122814Q582.1290055441905 417.93624323755466 586.6645961423739 421.2999587529538Q591.2001867405572 424.663674268353 600.4883818411435 424.663674268353Q609.7982783321515 424.663674268353 620.7357791048044 420.7574239924055L620.7357791048044 420.7574239924055Q613.37900775177 415.1367638731256 613.37900775177 405.2843326215693Q613.37900775177 395.4536027604348 619.3251887273789 385.2973520429715L619.3251887273789 385.2973520429715Q602.13768751321 387.79301194149343 592.1333465287003 395.9093319592954Q582.1290055441905 404.04735336751924 582.1290055441905 412.46749285122814ZM662.7496709616614 387.01176188630393L662.7496709616614 387.01176188630393Q643.543940438253 384.3424908644066 636.0352593522653 384.3424908644066Q628.5482796566993 384.3424908644066 621.6689388929474 384.9718311866426L621.6689388929474 384.9718311866426Q615.4189384514315 395.2799916370594 615.4189384514315 405.1324228886158Q615.4189384514315 414.98485414017205 622.9059181469975 419.976173937216L622.9059181469975 419.976173937216Q635.5795301534047 414.98485414017205 646.1915100697286 405.8268673821175Q656.8251913764744 396.6905820144849 662.7496709616614 387.01176188630393ZM667.7626921491272 387.79301194149343L667.7626921491272 387.79301194149343Q661.3607819746578 397.62374180262793 649.793940879769 406.8468327319482Q638.2270997848802 416.0699236612686 624.7939391137054 421.06124345831256L624.7939391137054 421.06124345831256Q631.1958492881747 424.5117645353995 641.0482805397311 424.5117645353995L641.0482805397311 424.5117645353995Q655.5665107320024 424.5117645353995 669.6290117254132 415.9180139283151Q683.6915127188241 407.32426332123066 699.3165138226138 391.5473524844874L699.3165138226138 391.5473524844874Q685.579533685532 390.5924913059225 667.7626921491272 387.79301194149343ZM676.9857830784476 346.6905784823575L676.9857830784476 346.6905784823575Q676.9857830784476 356.39110000096036 691.9814438600015 356.39110000096036L691.9814438600015 356.39110000096036Q701.9857848445113 356.39110000096036 714.0951606999483 347.9492591268295Q726.2045365553855 339.5074182526986 734.6246760390944 327.1593271026203Q743.0665169132253 314.811235952542 743.0665169132253 304.35116576917153L743.0665169132253 304.35116576917153Q743.0665169132253 302.4848461928856 742.4371765909893 299.35984597212763L742.4371765909893 299.35984597212763Q727.7670366657644 299.81557517098815 712.055230000287 308.34422160680674Q696.3434233348095 316.85116665220346 686.6646032066285 327.78866742485627Q676.9857830784476 338.7261681975091 676.9857830784476 346.6905784823575ZM814.9415219906584 287.1636645550028L813.8564524695619 285.6011644446238Q832.6064537941096 276.22616378235 849.3165244189959 276.22616378235L849.3165244189959 276.22616378235Q860.4059349246022 276.22616378235 866.3521159002112 279.8936987636562Q872.2982968758201 283.56123374496235 872.2982968758201 289.0299841312888L872.2982968758201 289.0299841312888Q872.2982968758201 297.47182500541965 859.9502057257417 304.50307550212506Q847.6021145756634 311.53432599883047 826.6602728185007 311.53432599883047L826.6602728185007 311.53432599883047Q814.7896122577049 311.53432599883047 785.0153045988166 305.4362352902681Q755.2626983303501 299.35984597212763 744.7809267565578 299.1862348487522L744.7809267565578 299.1862348487522Q745.2583573458403 301.5299850143207 745.2583573458403 303.8737351798891L745.2583573458403 303.8737351798891Q745.2583573458403 314.9848470759174 736.7514123004436 327.78866742485627Q728.222765864625 340.59248777379514 715.2670357827326 349.4249536755208Q702.2896043104183 358.2574195772464 690.570853482576 358.2574195772464L690.570853482576 358.2574195772464Q682.6064431977276 358.2574195772464 678.5482831888266 354.74179432889366Q674.4684217895037 351.226169080541 674.4684217895037 344.976168639025Q674.4684217895037 338.7261681975091 679.2427276823283 331.000473207302Q684.017033575153 323.2530768266729 692.3720688875962 316.15672215870165Q700.7271042000393 309.03866610030855 713.8564454053071 303.80863100862337Q726.985786610575 298.5785959169381 741.8295376591752 297.6237347383732L741.8295376591752 297.6237347383732Q736.5126970058024 283.4093240120088 708.6915144848878 283.4093240120088L708.6915144848878 283.4093240120088Q700.8790139329928 283.4093240120088 692.2201591546427 286.07859503390625Q683.5396029858706 288.7261646653818 676.6602622221187 292.6324149413292L676.6602622221187 292.6324149413292Q662.7496709616614 300.2930057602706 655.1107815331419 306.69491593474004L655.1107815331419 306.69491593474004L651.8121701890085 309.3424855662156L650.8790104008656 307.47616598992954Q653.548281422763 304.82859635845404 661.3607819746578 299.35984597212763Q669.1732825265527 293.89109558580117 675.8139079956634 290.44057450871423Q682.454533464774 287.0117548220493 691.9814438600015 284.1905740671983Q701.5083542552288 281.39109470276935 710.4059243282202 281.39109470276935L710.4059243282202 281.39109470276935Q739.1602666372779 281.39109470276935 744.3251975576973 297.47182500541965L744.3251975576973 297.47182500541965Q746.3434268669369 297.3199152724662 748.6871770325052 297.3199152724662L748.6871770325052 297.3199152724662Q762.7496780259161 297.3199152724662 791.2002008690666 302.5499503641514Q819.6290223217953 307.7799854558366 829.3295438403982 307.7799854558366L829.3295438403982 307.7799854558366Q847.6021145756634 307.7799854558366 858.7783306429576 302.15932533655666Q869.9545467102516 296.5386652172767 869.9545467102516 289.81123418647826L869.9545467102516 289.81123418647826Q869.9545467102516 285.29734497871675 864.2470810292839 282.38935866217815Q858.5396153483164 279.5030737360614 845.9528089035967 279.5030737360614Q833.3877038492991 279.5030737360614 814.9415219906584 287.1636645550028L814.9415219906584 287.1636645550028ZM701.0309236659464 389.811241250733L701.0309236659464 389.811241250733Q707.7583546967447 382.953601877403 719.0864804969924 370.2799898709958Q730.41460629724 357.62807925501033 738.3790165820883 349.27304394256726Q746.3434268669369 340.91800863012406 756.6732887077756 331.69491770080367L756.6732887077756 331.69491770080367Q777.4415193415629 312.94491637625595 798.0795416328185 309.1905758332621L798.0795416328185 309.1905758332621L798.231451365772 310.123735621405Q789.0083604364518 312.4674857869735 777.5283249032506 321.38675725038684Q766.0482893700495 330.2843273233783 756.6732887077756 340.3754738695758Q747.2982880455017 350.4449190253515 733.1489814904031 365.6792951015466Q718.9996749353046 380.91367117774155 709.1689450741702 390.13676210706194L709.1689450741702 390.13676210706194L711.1871743834097 390.13676210706194Q719.477105524587 390.13676210706194 725.8790156990565 389.2036023189189L725.8790156990565 389.2036023189189Q732.280925873526 382.1723518222135 737.2071414993042 378.4180112792196Q742.1333571250823 374.66367073622564 746.8208574562193 374.66367073622564Q751.5083577873562 374.66367073622564 751.5083577873562 377.00742090179415L751.5083577873562 377.00742090179415Q751.5083577873562 379.8286016566451 745.8876976680763 383.79995610385834Q740.2670375487962 387.79301194149343 731.043946619476 390.13676210706194L731.043946619476 390.13676210706194Q716.2001955708756 405.60985347789824 711.0352646504562 405.60985347789824L711.0352646504562 405.60985347789824Q710.4059243282202 405.60985347789824 710.4059243282202 405.2843326215693L710.4059243282202 405.2843326215693Q710.4059243282202 404.65499229933323 711.9684244385992 403.7218325111903L711.9684244385992 403.7218325111903Q716.2001955708756 400.4449225574788 724.0126961227705 391.3737413611119L724.0126961227705 391.3737413611119Q719.7809249904941 392.003081683348 714.6376954604966 392.003081683348Q709.4727645400773 392.003081683348 707.2809241074623 391.8511719503945L707.2809241074623 391.8511719503945Q670.5621715135562 426.0742646457785 640.0934193611662 426.0742646457785L640.0934193611662 426.0742646457785Q629.1559185885133 426.0742646457785 622.4501889481369 421.84249351350206L622.4501889481369 421.84249351350206Q609.7982783321515 426.226174378732 599.5552220530004 426.226174378732Q589.3121657738493 426.226174378732 584.1689362438519 422.168014369831Q579.0040053234325 418.10985436093006 579.0040053234325 412.0117636523677L579.0040053234325 412.0117636523677Q579.0040053234325 402.7886727230473 589.9415060960853 394.28172767765057Q600.8790068687381 385.7530812418321 620.562167981429 383.4093310762636L620.562167981429 383.4093310762636Q626.9857795463203 373.5786012151292 636.8165094074548 367.2417952119255Q646.668940659011 360.9049892087219 657.9102608975709 360.9049892087219L657.9102608975709 360.9049892087219Q673.6871717343142 360.9049892087219 673.6871717343142 372.1680108377037L673.6871717343142 372.1680108377037Q673.6871717343142 378.0924904228906 668.9996714031772 385.7530812418321L668.9996714031772 385.7530812418321Q694.3251940255699 389.50742178482597 701.0309236659464 389.811241250733ZM738.7045374384173 419.49874334793356L738.7045374384173 419.49874334793356Q744.6290170236043 419.49874334793356 754.5465524464264 413.48745820105887Q764.4857892596705 407.4761730541842 771.1264147287811 401.85551293490425Q777.7670401978918 396.2348528156243 777.7670401978918 395.2799916370594Q777.7670401978918 394.3468318489164 775.4883942035891 393.7174915266804Q773.2314495997084 393.1098525948664 769.3251993237609 393.1098525948664Q765.4189490478135 393.1098525948664 759.0170388733441 396.1480472539366Q752.5934273084526 399.1862419130068 747.9059269773157 403.41801304528326Q743.2184266461788 407.6280827871377 740.0934264254208 411.68624279603864Q736.9684262046629 415.76610419536155 736.9684262046629 417.6324237716476Q736.9684262046629 419.49874334793356 738.7045374384173 419.49874334793356ZM780.5665195623208 393.26176232781995L780.5665195623208 393.26176232781995Q783.6915197830788 390.7661024292979 784.0170406394077 390.7661024292979L784.0170406394077 390.7661024292979Q788.2271103812623 391.2218316281585 788.3790201142157 391.4605469227997Q788.5309298471692 391.69926221744095 788.5309298471692 392.003081683348Q788.5309298471692 392.3286025396769 787.2939505931192 393.95620682132164Q786.0352699486473 395.60551249338835 779.9371792400848 401.7036032019507L779.9371792400848 401.7036032019507Q764.7896087255775 416.54735425055105 764.7896087255775 419.67235447130906L764.7896087255775 419.67235447130906Q764.7896087255775 420.90933372535903 765.8746782466741 420.90933372535903L765.8746782466741 420.90933372535903Q773.3833593326619 420.90933372535903 793.9996802334956 406.6949229989947L793.9996802334956 406.6949229989947L794.3252010898246 409.0386731645632Q773.5352690656154 422.62374356869157 764.941518458531 422.62374356869157L764.941518458531 422.62374356869157Q760.7314487166766 422.62374356869157 760.7314487166766 418.65238912147834Q760.7314487166766 414.6593332838431 765.570858780767 408.2574231093737L765.570858780767 408.2574231093737Q747.1246769221262 421.84249351350206 736.8165164717094 422.01610463687746L736.8165164717094 422.01610463687746Q733.0621759287154 422.01610463687746 733.0621759287154 417.4805140386941L733.0621759287154 417.4805140386941Q733.0621759287154 409.34249263047025 743.4571419408201 400.14110309157184Q753.8521079529246 390.91801216225144 770.8876994341399 390.91801216225144L770.8876994341399 390.91801216225144Q776.5083595534198 390.91801216225144 780.5665195623208 393.26176232781995ZM836.1871832137281 408.4093328423272L836.1871832137281 408.4093328423272Q836.1871832137281 413.5742637627467 839.9415237567221 413.5742637627467L839.9415237567221 413.5742637627467Q844.3252046219519 413.5742637627467 854.4814553394153 406.8468327319482L854.4814553394153 406.8468327319482L854.7852748053224 409.0386731645632Q843.5439545667625 416.8511737164581 838.1403083517018 416.8511737164581Q832.7583635270631 416.8511737164581 832.7583635270631 409.0386731645632L832.7583635270631 409.0386731645632L832.7583635270631 408.73485369865614Q813.3790218802794 422.47183383573804 806.043951917667 422.47183383573804L806.043951917667 422.47183383573804Q801.2045418535765 422.47183383573804 801.2045418535765 418.5655835597905L801.2045418535765 418.5655835597905Q801.2045418535765 413.24874290641765 815.2670428469874 401.85551293490425L815.2670428469874 401.85551293490425Q819.7809320547487 398.1011723919104 819.7809320547487 396.9292973091261Q819.7809320547487 395.7574222263419 818.5439528006988 395.7574222263419L818.5439528006988 395.7574222263419Q814.7896122577049 395.7574222263419 793.0665204453526 409.8199232197527L793.0665204453526 409.8199232197527L792.6107912464921 407.6280827871377Q814.0083622025154 393.5655817937269 820.1064529110778 393.5655817937269L820.1064529110778 393.5655817937269Q824.1646129199787 393.5655817937269 824.1646129199787 398.1011723919104L824.1646129199787 398.1011723919104Q824.1646129199787 402.9405824560008 810.1021119265679 414.20360408498266L810.1021119265679 414.20360408498266Q805.414611595431 417.93624323755466 805.414611595431 419.1949238820266L805.414611595431 419.1949238820266Q805.414611595431 419.976173937216 807.4545422950924 419.976173937216L807.4545422950924 419.976173937216Q814.9415219906584 419.976173937216 833.6915233152062 405.2843326215693L833.6915233152062 405.2843326215693Q836.0352734807745 399.51176276933586 842.0465586276493 393.5655817937269Q848.0795451649459 387.6411022085399 852.4415246397539 387.6411022085399L852.4415246397539 387.6411022085399Q854.0040247501329 387.6411022085399 854.0040247501329 388.57426199668294L854.0040247501329 388.57426199668294Q854.0040247501329 390.440581572969 849.0127049530888 395.3667971987471Q843.999683765623 400.29301282452536 836.512704070057 405.9136729438053L836.512704070057 405.9136729438053Q836.1871832137281 406.8468327319482 836.1871832137281 408.4093328423272ZM886.3607978692309 377.94058068993706Q886.3607978692309 380.13242112255205 883.843436580287 382.1723518222135Q881.347776681765 384.1905811314531 879.2427418108377 384.1905811314531Q877.1377069399105 384.1905811314531 877.1377069399105 382.47617128812055Q877.1377069399105 380.761761444788 879.6333668384325 378.48311545048534Q882.1290267369545 376.22617084660465 884.2340616078817 376.22617084660465Q886.3607978692309 376.22617084660465 886.3607978692309 377.94058068993706L886.3607978692309 377.94058068993706ZM873.0795469310096 394.82426243819884L873.0795469310096 394.82426243819884Q851.9857954408933 413.8780832286536 851.9857954408933 418.71749329274405L851.9857954408933 418.71749329274405Q851.9857954408933 420.27999340312306 854.0908303118206 420.27999340312306Q856.1958651827479 420.27999340312306 860.4059349246022 418.4136738268371Q864.6377060568786 416.54735425055105 867.9146160105902 414.5942291125773Q871.1915259643016 412.64110397460365 875.8139221241728 409.733117658065Q880.414616893622 406.8468327319482 880.718436359529 406.6949229989947L880.718436359529 406.6949229989947L881.043957215858 409.0386731645632Q873.860796986199 413.7261734957001 864.6377060568786 418.4136738268371Q855.4146151275584 423.101174157974 850.6403092347336 423.101174157974Q845.8877047323309 423.101174157974 845.8877047323309 419.1949238820266L845.8877047323309 419.1949238820266Q845.8877047323309 415.9180139283151 851.5083648516108 409.2773884592044Q857.1290249708908 402.63676299009376 862.7496850901707 397.62374180262793L862.7496850901707 397.62374180262793L868.3920465998726 392.632422005584Q869.1732966550621 392.003081683348 871.3434356972551 392.1549914163014Q873.53527612987 392.3286025396769 873.53527612987 393.7174915266804L873.53527612987 393.7174915266804Q873.53527612987 394.3468318489164 873.0795469310096 394.82426243819884ZM882.4545475932835 415.9180139283151L882.4545475932835 415.9180139283151Q882.4545475932835 419.976173937216 888.3139230072046 419.976173937216Q894.1732984211258 419.976173937216 903.3746879600242 416.1567292229563Q912.5977788893446 412.3155831182746 920.4102794412395 406.6949229989947L920.4102794412395 406.6949229989947L920.7358002975684 409.0386731645632Q912.5977788893446 414.98485414017205 902.528333733569 418.89110441611956Q892.4371871873714 422.79735469206696 885.405936690666 422.79735469206696L885.405936690666 422.79735469206696Q876.030936028392 422.79735469206696 876.030936028392 415.9180139283151L876.030936028392 415.9180139283151Q876.030936028392 408.4093328423272 887.7496868562343 399.27304747469464Q899.4684376840768 390.13676210706194 910.4059384567297 390.13676210706194L910.4059384567297 390.13676210706194Q915.7227791101025 390.13676210706194 915.7227791101025 394.04301238300934L915.7227791101025 394.04301238300934Q915.7227791101025 396.6905820144849 913.7696539721288 399.0343321800533Q911.8165288341552 401.3780823456218 908.8434383463507 401.3780823456218Q905.8920492489681 401.3780823456218 905.8920492489681 399.8155822352428Q905.8920492489681 398.2530821248639 907.6064590923006 397.0161028708138Q909.3208689356331 395.7574222263419 911.4259038065604 395.6706166646542Q913.5309386774876 395.60551249338835 913.5309386774876 394.19492211596287L913.5309386774876 394.19492211596287Q913.5309386774876 393.41367206077337 912.5977788893446 392.7192275672717Q911.6646191012017 392.003081683348 910.2540287237762 392.003081683348L910.2540287237762 392.003081683348Q902.7670490282102 392.003081683348 892.6107983107468 400.98745731802705Q882.4545475932835 409.9718329527062 882.4545475932835 415.9180139283151ZM924.1646199842335 420.45360452649857L924.1646199842335 420.45360452649857Q935.4059402227933 420.45360452649857 946.0396215295391 409.1905828975167L946.0396215295391 409.1905828975167L946.0396215295391 409.0386731645632Q946.0396215295391 401.52999207857533 953.222781759198 394.97617217115237L953.222781759198 394.97617217115237Q952.7670525603376 393.26176232781995 950.5752121277226 393.26176232781995L950.5752121277226 393.26176232781995Q939.0083710328338 393.26176232781995 930.1108009598423 401.9206171061701Q921.191529496429 410.6011732749422 921.191529496429 417.15499318236516L921.191529496429 417.15499318236516Q921.191529496429 420.45360452649857 924.1646199842335 420.45360452649857ZM948.3833716951076 390.91801216225144L948.3833716951076 390.91801216225144Q956.673302836285 390.91801216225144 956.673302836285 396.38676254857785L956.673302836285 396.38676254857785Q956.673302836285 401.07426287971475 950.8790315936296 407.6280827871377L950.8790315936296 407.6280827871377L950.8790315936296 408.88676343160967Q950.8790315936296 414.02999296160715 955.414622191813 414.02999296160715L955.414622191813 414.02999296160715Q958.235802946664 414.02999296160715 961.6646226333289 411.68624279603864L961.6646226333289 411.68624279603864L969.3252134522703 406.6949229989947L969.6290329181774 409.0386731645632L962.4458726885184 413.5742637627467Q957.4545528914745 416.8511737164581 952.6802469986499 416.8511737164581Q947.9059411058251 416.8511737164581 946.3434409954461 412.0117636523677L946.3434409954461 412.0117636523677Q933.8434401124143 423.101174157974 922.6021198738545 423.101174157974L922.6021198738545 423.101174157974Q915.8746888430561 423.101174157974 915.8746888430561 416.6992639835046L915.8746888430561 416.6992639835046Q915.8746888430561 408.56124257528074 925.4233006287053 399.7504780639771Q934.9502110239328 390.91801216225144 948.3833716951076 390.91801216225144ZM996.19153479462 391.06992189520497Q999.4684447483314 391.06992189520497 999.4684447483314 394.5855471435576Q999.4684447483314 398.1011723919104 994.4771249512876 404.82860342270874L994.4771249512876 404.82860342270874Q1012.2939664876922 392.48051227263045 1023.0795575273916 392.48051227263045L1023.0795575273916 392.48051227263045Q1027.289627269246 392.48051227263045 1027.289627269246 396.0612416922489Q1027.289627269246 399.6636725022893 1024.164627048488 403.4831172165491Q1021.0396268277301 407.32426332123066 1017.2852862847362 410.12374268565975L1017.2852862847362 410.12374268565975Q1007.2809453002263 417.32860430574055 1007.2809453002263 419.1949238820266L1007.2809453002263 419.1949238820266Q1007.2809453002263 420.27999340312306 1009.0821607052466 420.27999340312306Q1010.8833761102668 420.27999340312306 1015.0934458521212 418.4136738268371Q1019.3252169843977 416.54735425055105 1022.6021269381091 414.5942291125773Q1025.8790368918208 412.64110397460365 1030.5014330516917 409.733117658065Q1035.102127821141 406.8468327319482 1035.405947287048 406.6949229989947L1035.405947287048 406.6949229989947L1035.731468143377 409.0386731645632Q1014.6377166532607 423.101174157974 1006.1958757791298 423.101174157974L1006.1958757791298 423.101174157974Q1002.1377157702289 423.101174157974 1002.1377157702289 419.1949238820266L1002.1377157702289 419.1949238820266Q1002.1377157702289 416.54735425055105 1005.5014312856281 412.8581178788229Q1008.8434454106052 409.1905828975167 1012.7496956865527 406.0655826767587L1012.7496956865527 406.0655826767587Q1023.535286726252 397.94926265895685 1023.535286726252 395.2799916370594L1023.535286726252 395.2799916370594Q1023.535286726252 394.4987415818699 1021.8208768829197 394.4987415818699L1021.8208768829197 394.4987415818699Q1016.0483070306861 394.4987415818699 1004.6333756687509 400.74874202338583Q993.2184443068155 406.99874246490174 979.3295544367802 421.06124345831256L979.3295544367802 421.06124345831256Q978.3746932582152 422.01610463687746 975.8139291884274 422.01610463687746Q973.2314637282177 422.01610463687746 973.2314637282177 420.605514259452L973.2314637282177 420.605514259452Q973.2314637282177 420.12808367016964 984.017054767917 409.0386731645632Q994.7809444171945 397.94926265895685 994.7809444171945 394.6723527052453L994.7809444171945 394.6723527052453Q994.7809444171945 393.8911026500559 993.7826804577858 393.8911026500559Q992.762715107955 393.8911026500559 989.5509093255093 395.9093319592954Q986.3608049334856 397.94926265895685 979.720179464375 402.39804769545253Q973.0795539952642 406.8468327319482 968.3920536641273 409.8199232197527L968.3920536641273 409.8199232197527L967.9146230748448 407.6280827871377Q970.2583732404133 406.0655826767587 974.3165332493143 403.26610331232973Q978.3746932582152 400.4449225574788 981.0439642801127 398.64370715245866Q983.6915339115882 396.84249174743843 986.8165341323461 394.82426243819884L986.8165341323461 394.82426243819884Q992.9146248409086 391.06992189520497 996.19153479462 391.06992189520497ZM1038.227128041899 418.10985436093006L1038.227128041899 418.10985436093006Q1038.227128041899 416.37374312717566 1041.0483087967498 413.8780832286536Q1043.8477881611789 411.3824233301317 1046.1264341554815 411.3824233301317Q1048.3833787593624 411.3824233301317 1048.3833787593624 413.42235402979315L1048.3833787593624 413.42235402979315Q1048.3833787593624 415.76610419536155 1045.5621980045114 418.02304879924236Q1042.7627186400823 420.27999340312306 1040.4840726457796 420.27999340312306Q1038.227128041899 420.27999340312306 1038.227128041899 418.10985436093006ZM1092.7627221722096 377.94058068993706Q1092.7627221722096 380.13242112255205 1090.2670622736878 382.1723518222135Q1087.7497009847439 384.1905811314531 1085.6446661138166 384.1905811314531Q1083.5396312428893 384.1905811314531 1083.5396312428893 382.47617128812055Q1083.5396312428893 380.761761444788 1086.0352911414113 378.48311545048534Q1088.5309510399334 376.22617084660465 1090.6576873012823 376.22617084660465Q1092.7627221722096 376.22617084660465 1092.7627221722096 377.94058068993706L1092.7627221722096 377.94058068993706ZM1079.4814712339885 394.82426243819884L1079.4814712339885 394.82426243819884Q1058.3877197438721 413.8780832286536 1058.3877197438721 418.71749329274405L1058.3877197438721 418.71749329274405Q1058.3877197438721 420.27999340312306 1060.4927546147994 420.27999340312306Q1062.5977894857265 420.27999340312306 1066.8295606180031 418.4136738268371Q1071.0396303598575 416.54735425055105 1074.316540313569 414.5942291125773Q1077.5934502672803 412.64110397460365 1082.2158464271515 409.733117658065Q1086.8165411966008 406.8468327319482 1087.1420620529298 406.6949229989947L1087.1420620529298 406.6949229989947L1087.4458815188368 409.0386731645632Q1080.262721289178 413.7261734957001 1071.0396303598575 418.4136738268371Q1061.8165394305372 423.101174157974 1057.0639349281344 423.101174157974Q1052.2896290353096 423.101174157974 1052.2896290353096 419.1949238820266L1052.2896290353096 419.1949238820266Q1052.2896290353096 415.9180139283151 1057.9102891545897 409.2773884592044Q1063.5309492738697 402.63676299009376 1069.1733107835714 397.62374180262793L1069.1733107835714 397.62374180262793L1074.7939709028515 392.632422005584Q1075.575220958041 392.003081683348 1077.767061390656 392.1549914163014Q1079.9372004328488 392.3286025396769 1079.9372004328488 393.7174915266804L1079.9372004328488 393.7174915266804Q1079.9372004328488 394.3468318489164 1079.4814712339885 394.82426243819884ZM1090.8747012055017 420.45360452649857L1090.8747012055017 420.45360452649857Q1102.1377228344836 420.45360452649857 1112.7497027508075 409.1905828975167L1112.7497027508075 409.1905828975167L1112.7497027508075 409.0386731645632Q1112.7497027508075 401.52999207857533 1119.9545643708884 394.97617217115237L1119.9545643708884 394.97617217115237Q1119.477133781606 393.26176232781995 1117.2852933489908 393.26176232781995L1117.2852933489908 393.26176232781995Q1105.718452254102 393.26176232781995 1096.8208821811108 401.9206171061701Q1087.9233121081193 410.6011732749422 1087.9233121081193 417.15499318236516L1087.9233121081193 417.15499318236516Q1087.9233121081193 420.45360452649857 1090.8747012055017 420.45360452649857ZM1115.093452916376 390.91801216225144L1115.093452916376 390.91801216225144Q1123.3833840575533 390.91801216225144 1123.3833840575533 396.38676254857785L1123.3833840575533 396.38676254857785Q1123.3833840575533 401.07426287971475 1117.61081420532 407.6280827871377L1117.61081420532 407.6280827871377L1117.61081420532 408.88676343160967Q1117.61081420532 414.02999296160715 1122.1247034130815 414.02999296160715L1122.1247034130815 414.02999296160715Q1124.9458841679323 414.02999296160715 1128.374703854597 411.68624279603864L1128.374703854597 411.68624279603864L1136.0352946735386 406.6949229989947L1136.3608155298675 409.0386731645632L1129.1559539097866 413.5742637627467Q1124.1646341127428 416.8511737164581 1119.390328219918 416.8511737164581Q1114.6377237175154 416.8511737164581 1113.0752236071364 412.0117636523677L1113.0752236071364 412.0117636523677Q1100.5752227241046 423.101174157974 1089.3122010951229 423.101174157974L1089.3122010951229 423.101174157974Q1082.6064714547463 423.101174157974 1082.6064714547463 416.6992639835046L1082.6064714547463 416.6992639835046Q1082.6064714547463 408.56124257528074 1092.1333818499738 399.7504780639771Q1101.6602922452012 390.91801216225144 1115.093452916376 390.91801216225144Z " fill="#823faf" transform="matrix(0.7700019112191813,0,0,0.7700019112191813,0,29.55518513249514)"/></g></svg>